<svg width="46" height="46" viewBox="0 0 46 46" fill="none" xmlns="http://www.w3.org/2000/svg">
<rect x="1.08203" y="1.2666" width="44" height="44" rx="5.5" fill="white"/>
<rect x="1.08203" y="1.2666" width="44" height="44" rx="5.5" stroke="black"/>
<path d="M14.332 27.0166C14.332 26.6851 14.4637 26.3671 14.6981 26.1327C14.9326 25.8983 15.2505 25.7666 15.582 25.7666H18.082C18.4136 25.7666 18.7315 25.8983 18.9659 26.1327C19.2003 26.3671 19.332 26.6851 19.332 27.0166V30.7666C19.332 31.0981 19.2003 31.4161 18.9659 31.6505C18.7315 31.8849 18.4136 32.0166 18.082 32.0166H15.582C15.2505 32.0166 14.9326 31.8849 14.6981 31.6505C14.4637 31.4161 14.332 31.0981 14.332 30.7666V27.0166ZM20.582 22.0166C20.582 21.6851 20.7137 21.3671 20.9481 21.1327C21.1826 20.8983 21.5005 20.7666 21.832 20.7666H24.332C24.6636 20.7666 24.9815 20.8983 25.2159 21.1327C25.4503 21.3671 25.582 21.6851 25.582 22.0166V30.7666C25.582 31.0981 25.4503 31.4161 25.2159 31.6505C24.9815 31.8849 24.6636 32.0166 24.332 32.0166H21.832C21.5005 32.0166 21.1826 31.8849 20.9481 31.6505C20.7137 31.4161 20.582 31.0981 20.582 30.7666V22.0166ZM26.832 15.7666C26.832 15.4351 26.9637 15.1171 27.1981 14.8827C27.4326 14.6483 27.7505 14.5166 28.082 14.5166H30.582C30.9136 14.5166 31.2315 14.6483 31.4659 14.8827C31.7003 15.1171 31.832 15.4351 31.832 15.7666V30.7666C31.832 31.0981 31.7003 31.4161 31.4659 31.6505C31.2315 31.8849 30.9136 32.0166 30.582 32.0166H28.082C27.7505 32.0166 27.4326 31.8849 27.1981 31.6505C26.9637 31.4161 26.832 31.0981 26.832 30.7666V15.7666Z" fill="black"/>
</svg>
