<svg width="46" height="46" viewBox="0 0 46 46" fill="none" xmlns="http://www.w3.org/2000/svg">
<rect x="1.08203" y="1.2666" width="44" height="44" rx="5.5" fill="white"/>
<rect x="1.08203" y="1.2666" width="44" height="44" rx="5.5" stroke="black"/>
<path d="M19.3329 30.7666V32.6416C19.3329 32.8486 19.5009 33.0166 19.7079 33.0166H21.2079C21.3074 33.0166 21.4028 32.9771 21.4731 32.9068C21.5434 32.8364 21.5829 32.7411 21.5829 32.6416V30.7666H22.3329V32.6416C22.3329 32.8486 22.5009 33.0166 22.7079 33.0166H24.2079C24.3074 33.0166 24.4028 32.9771 24.4731 32.9068C24.5434 32.8364 24.5829 32.7411 24.5829 32.6416V30.7666H24.7089C27.6969 30.7666 29.8329 29.2171 29.8329 26.5366C29.8329 24.2836 28.3224 23.0521 26.5539 22.8766V22.7446C28.0089 22.3816 29.0784 21.2836 29.0784 19.4596C29.0784 17.1616 27.3534 15.7666 24.7209 15.7666H24.5829V13.8916C24.5829 13.7921 24.5434 13.6968 24.4731 13.6264C24.4028 13.5561 24.3074 13.5166 24.2079 13.5166H22.7079C22.6085 13.5166 22.5131 13.5561 22.4428 13.6264C22.3724 13.6968 22.3329 13.7921 22.3329 13.8916V15.7666H21.4734V13.8916C21.4734 13.7921 21.4339 13.6968 21.3636 13.6264C21.2933 13.5561 21.1979 13.5166 21.0984 13.5166H19.7079C19.6085 13.5166 19.5131 13.5561 19.4428 13.6264C19.3724 13.6968 19.3329 13.7921 19.3329 13.8916V15.7666L16.3359 15.7831C16.2365 15.7831 16.1411 15.8226 16.0708 15.8929C16.0004 15.9633 15.9609 16.0586 15.9609 16.1581V17.6416C15.9609 17.8471 16.1259 18.0166 16.3329 18.0166L17.4654 18.0091C17.7625 18.0111 18.0467 18.1305 18.2561 18.3412C18.4654 18.552 18.5829 18.837 18.5829 19.1341V27.3916C18.5829 27.69 18.4644 27.9761 18.2534 28.1871C18.0425 28.3981 17.7563 28.5166 17.4579 28.5166L16.3359 28.5331C16.2365 28.5331 16.1411 28.5726 16.0708 28.6429C16.0004 28.7133 15.9609 28.8086 15.9609 28.9081V30.4081C15.9609 30.6151 16.1289 30.7831 16.3359 30.7831L19.3329 30.7666ZM21.4734 17.9971H24.0519C25.4109 17.9971 26.2089 18.7441 26.2089 19.9651C26.2089 21.2716 25.3464 22.0081 23.3934 22.0081H21.4734V17.9971ZM21.4734 24.0736H24.2334C25.9389 24.0736 26.8674 24.9436 26.8674 26.3596C26.8674 27.7891 25.9284 28.5346 23.6304 28.5346H21.4734V24.0751V24.0736Z" fill="black"/>
</svg>
