<svg width="53" height="53" viewBox="0 0 53 53" fill="none" xmlns="http://www.w3.org/2000/svg">
<path d="M27.0205 45.9542C15.5738 46.1271 6.53119 35.8123 8.08426 24.4249C9.23284 16.003 15.9434 9.40351 24.3352 8.20951C25.1339 8.09587 25.9405 8.07083 26.7454 8.03391C27.5364 8.00445 28.3699 8.08638 29.1549 8.18626C44.0792 10.0854 51.1918 28.0458 40.9327 39.6197C38.4121 42.4634 34.8237 44.619 31.0973 45.4545C29.7516 45.7561 28.3937 45.8714 27.0205 45.9542ZM25.9996 9.30301C17.8235 9.74817 10.8227 15.8449 9.42288 23.9215C7.65769 34.1063 14.9948 43.8113 25.4264 44.6598C26.1819 44.7213 26.9362 44.6931 27.6924 44.6789C38.526 44.0823 46.5147 33.8795 44.1152 23.1866C42.2219 14.7499 34.6122 9.04936 26.0048 9.3026L25.9996 9.30301Z" fill="black"/>
<path d="M27.2737 42.3923C21.7446 42.5434 16.6486 39.8165 13.7348 35.0545C8.27445 26.1309 13.2822 13.8549 23.8277 11.886C24.699 11.7234 25.5706 11.6559 26.4546 11.613L26.4784 11.6109C26.9313 11.5777 27.3957 11.6123 27.8486 11.6354C37.3143 12.1174 43.9527 21.3842 41.7983 30.5833C40.3485 36.7733 35.1693 41.4199 28.8687 42.2653C28.338 42.3365 27.8078 42.3626 27.2737 42.3923ZM26.2278 12.8572C25.004 12.9274 23.7634 13.1054 22.5868 13.4561C16.4368 15.2891 12.373 21.4812 12.7527 27.8388C13.1715 34.8494 18.5868 40.4949 25.5723 41.1011C26.1909 41.1548 26.806 41.148 27.4256 41.1334C33.6805 40.9471 39.1548 36.3655 40.5793 30.2924C42.7349 21.1019 35.6594 12.5102 26.233 12.8568L26.2278 12.8572Z" fill="black"/>
<path d="M26.8891 21.8777C27.8384 21.8777 28.6598 22.059 29.3531 22.4217C30.0464 22.7737 30.6331 23.2963 31.1131 23.9897L29.9611 25.0937C29.5558 24.475 29.0971 24.0323 28.5851 23.7657C28.0838 23.4883 27.4864 23.3497 26.7931 23.3497C26.2811 23.3497 25.8598 23.419 25.5291 23.5577C25.1984 23.6963 24.9531 23.883 24.7931 24.1177C24.6438 24.3417 24.5691 24.5977 24.5691 24.8857C24.5691 25.2163 24.6811 25.5043 24.9051 25.7497C25.1398 25.995 25.5718 26.187 26.2011 26.3257L28.3451 26.8057C29.3691 27.0297 30.0944 27.371 30.5211 27.8297C30.9478 28.2883 31.1611 28.8697 31.1611 29.5737C31.1611 30.2243 30.9851 30.7897 30.6331 31.2697C30.2811 31.7497 29.7904 32.1177 29.1611 32.3737C28.5424 32.6297 27.8118 32.7577 26.9691 32.7577C26.2224 32.7577 25.5504 32.6617 24.9531 32.4697C24.3558 32.2777 23.8331 32.0163 23.3851 31.6857C22.9371 31.355 22.5691 30.9763 22.2811 30.5497L23.4651 29.3657C23.6891 29.739 23.9718 30.075 24.3131 30.3737C24.6544 30.6617 25.0491 30.8857 25.4971 31.0457C25.9558 31.2057 26.4624 31.2857 27.0171 31.2857C27.5078 31.2857 27.9291 31.227 28.2811 31.1097C28.6438 30.9923 28.9158 30.8217 29.0971 30.5977C29.2891 30.363 29.3851 30.0857 29.3851 29.7657C29.3851 29.4563 29.2784 29.1843 29.0651 28.9497C28.8624 28.715 28.4784 28.5337 27.9131 28.4057L25.5931 27.8777C24.9531 27.739 24.4251 27.5417 24.0091 27.2857C23.5931 27.0297 23.2838 26.7203 23.0811 26.3577C22.8784 25.9843 22.7771 25.5683 22.7771 25.1097C22.7771 24.5123 22.9371 23.9737 23.2571 23.4937C23.5878 23.003 24.0624 22.6137 24.6811 22.3257C25.2998 22.027 26.0358 21.8777 26.8891 21.8777Z" fill="black"/>
</svg>
