<svg width="46" height="46" viewBox="0 0 46 46" fill="none" xmlns="http://www.w3.org/2000/svg">
<rect x="1.08203" y="1.2666" width="44" height="44" rx="5.5" fill="white"/>
<rect x="1.08203" y="1.2666" width="44" height="44" rx="5.5" stroke="black"/>
<path fill-rule="evenodd" clip-rule="evenodd" d="M14.3312 27.6414C14.3312 27.8072 14.397 27.9661 14.5143 28.0834C14.6315 28.2006 14.7904 28.2664 14.9562 28.2664H29.6974L25.7637 32.1989C25.6463 32.3163 25.5804 32.4754 25.5804 32.6414C25.5804 32.8074 25.6463 32.9666 25.7637 33.0839C25.8811 33.2013 26.0402 33.2672 26.2062 33.2672C26.3722 33.2672 26.5313 33.2013 26.6487 33.0839L31.6487 28.0839C31.7069 28.0259 31.7531 27.9569 31.7846 27.881C31.8161 27.805 31.8323 27.7236 31.8323 27.6414C31.8323 27.5592 31.8161 27.4778 31.7846 27.4019C31.7531 27.3259 31.7069 27.257 31.6487 27.1989L26.6487 22.1989C26.5313 22.0816 26.3722 22.0156 26.2062 22.0156C26.0402 22.0156 25.8811 22.0816 25.7637 22.1989C25.6463 22.3163 25.5804 22.4754 25.5804 22.6414C25.5804 22.8074 25.6463 22.9666 25.7637 23.0839L29.6974 27.0164H14.9562C14.7904 27.0164 14.6315 27.0823 14.5143 27.1995C14.397 27.3167 14.3312 27.4757 14.3312 27.6414ZM31.8312 18.8914C31.8312 19.0572 31.7653 19.2161 31.6481 19.3334C31.5309 19.4506 31.372 19.5164 31.2062 19.5164H16.4649L20.3987 23.4489C20.4568 23.507 20.5029 23.576 20.5343 23.6519C20.5658 23.7279 20.582 23.8092 20.582 23.8914C20.582 23.9736 20.5658 24.055 20.5343 24.1309C20.5029 24.2068 20.4568 24.2758 20.3987 24.3339C20.3406 24.392 20.2716 24.4381 20.1957 24.4696C20.1198 24.501 20.0384 24.5172 19.9562 24.5172C19.874 24.5172 19.7926 24.501 19.7167 24.4696C19.6408 24.4381 19.5718 24.392 19.5137 24.3339L14.5137 19.3339C14.4555 19.2759 14.4093 19.2069 14.3778 19.131C14.3463 19.055 14.3301 18.9736 14.3301 18.8914C14.3301 18.8092 14.3463 18.7278 14.3778 18.6519C14.4093 18.5759 14.4555 18.507 14.5137 18.4489L19.5137 13.4489C19.6311 13.3316 19.7902 13.2656 19.9562 13.2656C20.1222 13.2656 20.2813 13.3316 20.3987 13.4489C20.5161 13.5663 20.582 13.7254 20.582 13.8914C20.582 14.0574 20.5161 14.2166 20.3987 14.3339L16.4649 18.2664H31.2062C31.372 18.2664 31.5309 18.3323 31.6481 18.4495C31.7653 18.5667 31.8312 18.7257 31.8312 18.8914Z" fill="black"/>
</svg>
