<svg width="46" height="46" viewBox="0 0 46 46" fill="none" xmlns="http://www.w3.org/2000/svg">
<rect x="1.08203" y="0.594727" width="44" height="44" rx="5.5" fill="white"/>
<rect x="1.08203" y="0.594727" width="44" height="44" rx="5.5" stroke="black"/>
<path d="M27.377 13.0023C27.6534 12.9332 27.9418 12.928 28.2205 12.987C28.4991 13.046 28.7607 13.1677 28.9853 13.3429C29.2098 13.5181 29.3916 13.7421 29.5166 13.998C29.6417 14.254 29.7068 14.535 29.707 14.8198V16.3448H30.332C30.8293 16.3448 31.3062 16.5424 31.6579 16.894C32.0095 17.2456 32.207 17.7226 32.207 18.2198V29.4698C32.207 29.9671 32.0095 30.444 31.6579 30.7957C31.3062 31.1473 30.8293 31.3448 30.332 31.3448H14.082C13.5848 31.3448 13.1078 31.1473 12.7562 30.7957C12.4046 30.444 12.207 29.9671 12.207 29.4698V18.2198C12.2069 17.7372 12.3928 17.273 12.7263 16.924C13.0597 16.575 13.5148 16.368 13.997 16.3461L27.377 13.0023ZM19.1595 16.3448H28.457V14.8198C28.4568 14.725 28.435 14.6315 28.3933 14.5463C28.3516 14.4611 28.291 14.3866 28.2162 14.3283C28.1414 14.27 28.0544 14.2295 27.9616 14.2098C27.8688 14.1902 27.7728 14.1919 27.6808 14.2148L19.1595 16.3448ZM14.082 17.5948C13.9163 17.5948 13.7573 17.6607 13.6401 17.7779C13.5229 17.8951 13.457 18.0541 13.457 18.2198V29.4698C13.457 29.6356 13.5229 29.7946 13.6401 29.9118C13.7573 30.029 13.9163 30.0948 14.082 30.0948H30.332C30.4978 30.0948 30.6568 30.029 30.774 29.9118C30.8912 29.7946 30.957 29.6356 30.957 29.4698V18.2198C30.957 18.0541 30.8912 17.8951 30.774 17.7779C30.6568 17.6607 30.4978 17.5948 30.332 17.5948H14.082Z" fill="black"/>
</svg>
