<svg width="46" height="46" viewBox="0 0 46 46" fill="none" xmlns="http://www.w3.org/2000/svg">
<rect x="1.08203" y="1.2666" width="44" height="44" rx="5.5" fill="white"/>
<rect x="1.08203" y="1.2666" width="44" height="44" rx="5.5" stroke="black"/>
<path d="M13.084 17.0166C13.084 16.3536 13.3474 15.7177 13.8162 15.2488C14.2851 14.78 14.9209 14.5166 15.584 14.5166H30.584C31.247 14.5166 31.8829 14.78 32.3518 15.2488C32.8206 15.7177 33.084 16.3536 33.084 17.0166V29.5166C33.084 30.1796 32.8206 30.8155 32.3518 31.2844C31.8829 31.7532 31.247 32.0166 30.584 32.0166H15.584C14.9209 32.0166 14.2851 31.7532 13.8162 31.2844C13.3474 30.8155 13.084 30.1796 13.084 29.5166V17.0166ZM14.334 28.2666V29.5166C14.334 29.8481 14.4657 30.1661 14.7001 30.4005C14.9345 30.6349 15.2525 30.7666 15.584 30.7666H30.584C30.9155 30.7666 31.2334 30.6349 31.4679 30.4005C31.7023 30.1661 31.834 29.8481 31.834 29.5166V25.1416L27.1127 22.7079C26.9955 22.6491 26.8628 22.6288 26.7334 22.6496C26.6039 22.6705 26.4843 22.7315 26.3915 22.8241L21.754 27.4616L18.429 25.2466C18.3089 25.1667 18.1649 25.1307 18.0214 25.1449C17.8779 25.159 17.7437 25.2223 17.6415 25.3241L14.334 28.2666ZM20.584 20.1416C20.584 19.6443 20.3864 19.1674 20.0348 18.8158C19.6832 18.4641 19.2063 18.2666 18.709 18.2666C18.2117 18.2666 17.7348 18.4641 17.3832 18.8158C17.0315 19.1674 16.834 19.6443 16.834 20.1416C16.834 20.6389 17.0315 21.1158 17.3832 21.4674C17.7348 21.8191 18.2117 22.0166 18.709 22.0166C19.2063 22.0166 19.6832 21.8191 20.0348 21.4674C20.3864 21.1158 20.584 20.6389 20.584 20.1416Z" fill="black"/>
</svg>
