<svg width="46" height="46" viewBox="0 0 46 46" fill="none" xmlns="http://www.w3.org/2000/svg">
<rect x="1.08203" y="1.2666" width="44" height="44" rx="5.5" fill="white"/>
<rect x="1.08203" y="1.2666" width="44" height="44" rx="5.5" stroke="black"/>
<path d="M30.582 30.7666V18.8916L24.957 13.2666H18.082C17.419 13.2666 16.7831 13.53 16.3143 13.9988C15.8454 14.4677 15.582 15.1036 15.582 15.7666V30.7666C15.582 31.4296 15.8454 32.0655 16.3143 32.5344C16.7831 33.0032 17.419 33.2666 18.082 33.2666H28.082C28.7451 33.2666 29.381 33.0032 29.8498 32.5344C30.3186 32.0655 30.582 31.4296 30.582 30.7666ZM24.957 17.0166C24.957 17.5139 25.1546 17.9908 25.5062 18.3424C25.8578 18.6941 26.3348 18.8916 26.832 18.8916H29.332V30.7666C29.332 31.0981 29.2003 31.4161 28.9659 31.6505C28.7315 31.8849 28.4136 32.0166 28.082 32.0166H18.082C17.7505 32.0166 17.4326 31.8849 17.1981 31.6505C16.9637 31.4161 16.832 31.0981 16.832 30.7666V15.7666C16.832 15.4351 16.9637 15.1171 17.1981 14.8827C17.4326 14.6483 17.7505 14.5166 18.082 14.5166H24.957V17.0166Z" fill="black"/>
<path d="M18.8359 30.8752C18.5923 30.7777 18.396 30.5895 18.2884 30.3502C18.0447 29.8652 18.1259 29.3802 18.3884 28.9727C18.6359 28.5889 19.0459 28.2627 19.5097 27.9889C20.0971 27.6558 20.718 27.3855 21.3622 27.1827C21.8624 26.2834 22.3058 25.3537 22.6897 24.3989C22.4601 23.8774 22.2802 23.3354 22.1522 22.7802C22.0447 22.2802 22.0034 21.7852 22.0947 21.3602C22.1884 20.9177 22.4372 20.5202 22.9072 20.3314C23.1472 20.2352 23.4072 20.1814 23.6597 20.2352C23.7867 20.2622 23.9061 20.3172 24.0092 20.3961C24.1123 20.475 24.1966 20.5759 24.2559 20.6914C24.3659 20.8964 24.4059 21.1364 24.4147 21.3639C24.4234 21.5989 24.3997 21.8589 24.3559 22.1314C24.2509 22.7689 24.0184 23.5489 23.7059 24.3739C24.0508 25.1114 24.4607 25.8167 24.9309 26.4814C25.4873 26.4375 26.0469 26.4585 26.5984 26.5439C27.0534 26.6264 27.5159 26.7877 27.7984 27.1252C27.9484 27.3052 28.0397 27.5252 28.0484 27.7727C28.0572 28.0127 27.9897 28.2502 27.8759 28.4764C27.7774 28.6861 27.6246 28.8656 27.4334 28.9964C27.2444 29.1197 27.0213 29.1801 26.7959 29.1689C26.3822 29.1514 25.9784 28.9239 25.6297 28.6477C25.2056 28.297 24.8235 27.8986 24.4909 27.4602C23.6456 27.5561 22.8103 27.7259 21.9947 27.9677C21.6211 28.6301 21.1947 29.2613 20.7197 29.8552C20.3547 30.2927 19.9584 30.6752 19.5609 30.8389C19.3325 30.9422 19.0735 30.9552 18.8359 30.8752ZM20.5597 28.4989C20.3522 28.5939 20.1597 28.6939 19.9859 28.7964C19.5759 29.0389 19.3097 29.2752 19.1772 29.4802C19.0597 29.6614 19.0572 29.7927 19.1272 29.9314C19.1397 29.9589 19.1522 29.9764 19.1597 29.9864C19.1746 29.9824 19.1892 29.9774 19.2034 29.9714C19.3747 29.9014 19.6472 29.6777 19.9972 29.2564C20.1962 29.0127 20.3839 28.7599 20.5597 28.4989ZM22.6097 26.8364C23.0271 26.739 23.4482 26.6585 23.8722 26.5952C23.6446 26.2469 23.4319 25.889 23.2347 25.5227C23.0386 25.9659 22.8302 26.4036 22.6097 26.8352V26.8364ZM25.6672 27.3989C25.8547 27.6027 26.0372 27.7739 26.2109 27.9114C26.5109 28.1489 26.7197 28.2277 26.8334 28.2314C26.8639 28.2354 26.8948 28.2288 26.9209 28.2127C26.9729 28.1716 27.0134 28.1178 27.0384 28.0564C27.0828 27.9803 27.1082 27.8945 27.1122 27.8064C27.1114 27.7771 27.0999 27.749 27.0797 27.7277C27.0147 27.6502 26.8297 27.5377 26.4322 27.4664C26.1793 27.4241 25.9235 27.402 25.6672 27.4002V27.3989ZM23.1797 23.0164C23.2849 22.6771 23.3684 22.3314 23.4297 21.9814C23.4684 21.7464 23.4834 21.5527 23.4772 21.4002C23.4775 21.316 23.464 21.2324 23.4372 21.1527C23.3746 21.1604 23.3136 21.1773 23.2559 21.2027C23.1472 21.2464 23.0584 21.3352 23.0109 21.5564C22.9609 21.7964 22.9734 22.1427 23.0684 22.5839C23.0984 22.7227 23.1359 22.8677 23.1809 23.0164H23.1797Z" fill="black"/>
</svg>
