<svg width="46" height="46" viewBox="0 0 46 46" fill="none" xmlns="http://www.w3.org/2000/svg">
<rect x="1.08203" y="1.2666" width="44" height="44" rx="5.5" fill="white"/>
<rect x="1.08203" y="1.2666" width="44" height="44" rx="5.5" stroke="black"/>
<path fill-rule="evenodd" clip-rule="evenodd" d="M21.207 28.2666C22.1099 28.2666 23.0039 28.0888 23.838 27.7433C24.6721 27.3978 25.43 26.8914 26.0684 26.253C26.7068 25.6146 27.2132 24.8567 27.5587 24.0226C27.9042 23.1884 28.082 22.2944 28.082 21.3916C28.082 20.4888 27.9042 19.5948 27.5587 18.7607C27.2132 17.9265 26.7068 17.1686 26.0684 16.5302C25.43 15.8918 24.6721 15.3854 23.838 15.0399C23.0039 14.6944 22.1099 14.5166 21.207 14.5166C19.3837 14.5166 17.635 15.2409 16.3457 16.5302C15.0564 17.8196 14.332 19.5682 14.332 21.3916C14.332 23.215 15.0564 24.9636 16.3457 26.253C17.635 27.5423 19.3837 28.2666 21.207 28.2666ZM29.332 21.3916C29.332 23.5465 28.476 25.6131 26.9523 27.1368C25.4285 28.6606 23.3619 29.5166 21.207 29.5166C19.0521 29.5166 16.9855 28.6606 15.4618 27.1368C13.9381 25.6131 13.082 23.5465 13.082 21.3916C13.082 19.2367 13.9381 17.1701 15.4618 15.6464C16.9855 14.1226 19.0521 13.2666 21.207 13.2666C23.3619 13.2666 25.4285 14.1226 26.9523 15.6464C28.476 17.1701 29.332 19.2367 29.332 21.3916Z" fill="black"/>
<path d="M26.0117 27.9441C26.0492 27.9941 26.0892 28.0416 26.1342 28.0878L30.9467 32.9003C31.1811 33.1349 31.4991 33.2667 31.8307 33.2668C32.1622 33.2669 32.4803 33.1353 32.7148 32.9009C32.9494 32.6666 33.0812 32.3486 33.0813 32.017C33.0815 31.6854 32.9499 31.3674 32.7155 31.1328L27.903 26.3203C27.8583 26.2751 27.8102 26.2333 27.7592 26.1953C27.2689 26.8639 26.6796 27.454 26.0117 27.9453V27.9441Z" fill="black"/>
</svg>
