<svg width="46" height="46" viewBox="0 0 46 46" fill="none" xmlns="http://www.w3.org/2000/svg">
<rect x="1.08203" y="1.2666" width="44" height="44" rx="5.5" fill="white"/>
<rect x="1.08203" y="1.2666" width="44" height="44" rx="5.5" stroke="black"/>
<path fill-rule="evenodd" clip-rule="evenodd" d="M13.082 19.5166C13.082 18.8536 13.3454 18.2177 13.8143 17.7488C14.2831 17.28 14.919 17.0166 15.582 17.0166H24.957C25.5634 17.0165 26.1491 17.2368 26.6051 17.6365C27.0611 18.0362 27.3563 18.588 27.4358 19.1891L31.3233 17.4616C31.5136 17.3768 31.722 17.3409 31.9297 17.3572C32.1374 17.3735 32.3377 17.4414 32.5125 17.5548C32.6872 17.6682 32.8308 17.8235 32.9303 18.0065C33.0298 18.1895 33.0819 18.3945 33.082 18.6029V27.9304C33.0819 28.1385 33.0297 28.3433 32.9303 28.5262C32.8309 28.7091 32.6874 28.8643 32.5128 28.9776C32.3382 29.091 32.1381 29.159 31.9306 29.1754C31.7231 29.1918 31.5148 29.1561 31.3245 29.0716L27.4358 27.3441C27.3563 27.9452 27.0611 28.497 26.6051 28.8967C26.1491 29.2964 25.5634 29.5167 24.957 29.5166H15.582C14.919 29.5166 14.2831 29.2532 13.8143 28.7844C13.3454 28.3155 13.082 27.6796 13.082 27.0166V19.5166ZM27.457 25.9854L31.832 27.9304V18.6029L27.457 20.5479V25.9854ZM15.582 18.2666C15.2505 18.2666 14.9326 18.3983 14.6981 18.6327C14.4637 18.8671 14.332 19.1851 14.332 19.5166V27.0166C14.332 27.3481 14.4637 27.6661 14.6981 27.9005C14.9326 28.1349 15.2505 28.2666 15.582 28.2666H24.957C25.2886 28.2666 25.6065 28.1349 25.8409 27.9005C26.0753 27.6661 26.207 27.3481 26.207 27.0166V19.5166C26.207 19.1851 26.0753 18.8671 25.8409 18.6327C25.6065 18.3983 25.2886 18.2666 24.957 18.2666H15.582Z" fill="black"/>
</svg>
